<?xml version="1.0" standalone="no"?>
<!DOCTYPE svg PUBLIC "-//W3C//DTD SVG 20010904//EN"
 "http://www.w3.org/TR/2001/REC-SVG-20010904/DTD/svg10.dtd">
<svg version="1.0" xmlns="http://www.w3.org/2000/svg"
 width="100.000000pt" height="100.000000pt" viewBox="0 0 100.000000 100.000000"
 preserveAspectRatio="xMidYMid meet">
<metadata>
Created by potrace 1.11, written by Peter Selinger 2001-2013
</metadata>
<g transform="translate(0.000000,100.000000) scale(0.100000,-0.100000)"
fill="#000000" stroke="none">
<path d="M479 899 l-24 -19 23 -6 c12 -4 22 -14 23 -23 0 -11 2 -12 6 -3 3 7
-1 20 -8 28 -10 12 -10 15 2 12 8 -2 17 -7 20 -12 7 -9 29 0 29 12 0 4 -11 12
-24 18 -19 9 -28 7 -47 -7z"/>
<path d="M365 876 c-21 -15 -13 -51 10 -42 8 3 17 0 21 -6 4 -6 3 -8 -2 -5 -5
3 -10 -2 -10 -11 -1 -9 -4 -24 -8 -32 -5 -12 0 -16 19 -18 16 -1 25 3 25 13 0
8 -5 15 -11 15 -5 0 -7 -4 -4 -10 3 -5 1 -10 -4 -10 -16 0 -13 26 3 39 11 10
17 8 26 -6 8 -13 13 -14 16 -5 3 6 11 12 19 12 7 0 18 7 25 15 10 12 9 16 -8
22 -12 5 -21 12 -21 18 0 5 -4 11 -10 13 -6 2 -11 -1 -11 -8 0 -8 -6 -8 -21 1
-12 6 -19 7 -15 1 3 -5 19 -15 36 -22 34 -14 39 -26 11 -26 -11 0 -18 4 -15 7
2 4 0 10 -6 14 -5 3 -10 1 -10 -4 0 -6 -4 -11 -10 -11 -5 0 -10 7 -10 15 0 8
-6 12 -14 9 -8 -3 -17 0 -22 7 -4 7 -3 10 4 5 6 -3 14 -1 17 5 11 17 0 20 -20
5z"/>
<path d="M604 875 c-13 -9 -23 -10 -31 -3 -15 12 -36 1 -27 -14 5 -8 1 -9 -12
-4 -10 4 -15 4 -11 0 4 -4 -2 -14 -14 -22 -15 -10 -18 -17 -10 -25 8 -8 14 -8
22 0 6 6 19 9 28 6 12 -4 13 -3 3 4 -15 11 -10 15 44 46 28 15 33 15 38 2 3
-9 -1 -15 -11 -15 -12 0 -13 -3 -3 -15 9 -11 17 -12 32 -4 15 8 17 13 8 19
-10 6 -10 8 0 12 7 2 1 9 -13 15 -19 9 -29 9 -43 -2z"/>
<path d="M581 840 c-15 -9 -23 -50 -10 -50 4 0 12 7 17 16 8 14 11 14 25 -7 9
-12 14 -25 10 -28 -3 -3 -8 0 -10 7 -3 6 -9 9 -14 6 -6 -3 -5 -11 2 -20 9 -11
15 -11 25 -3 17 14 18 24 1 41 -7 7 -18 21 -23 30 -6 12 -14 14 -23 8z"/>
<path d="M329 744 c-11 -14 -11 -18 4 -29 14 -10 15 -14 4 -18 -8 -3 -20 0
-26 6 -9 9 -13 6 -17 -11 -4 -12 -10 -22 -15 -22 -5 0 -6 8 -3 18 4 12 3 14
-4 4 -5 -7 -25 -15 -45 -17 -34 -3 -36 -1 -31 20 4 17 0 26 -14 34 -25 13 -42
-3 -42 -40 0 -15 -7 -29 -16 -33 -18 -7 -10 -26 12 -26 10 0 14 12 14 43 0 35
3 43 18 43 10 0 19 -6 19 -12 0 -7 -7 -9 -16 -6 -14 5 -14 3 -2 -11 9 -11 10
-17 2 -17 -6 0 -11 -7 -11 -15 0 -18 12 -19 27 -4 14 14 81 21 88 9 3 -5 -6
-25 -19 -44 -71 -106 -54 -266 40 -360 40 -39 105 -75 137 -76 18 0 18 -1 1
-17 -10 -10 -19 -17 -21 -15 -2 1 -11 -4 -19 -13 -21 -21 -31 -19 -38 7 -6 21
-8 19 -21 -17 -12 -35 -12 -43 1 -62 18 -28 50 -30 59 -3 7 23 -1 40 -18 40
-8 0 -8 -3 2 -9 9 -6 10 -11 2 -15 -6 -4 -9 -11 -6 -16 3 -4 -2 -7 -11 -6 -19
3 -38 32 -29 46 3 5 11 7 18 4 7 -2 30 6 50 20 20 14 39 21 42 16 8 -13 45 0
45 16 0 8 5 14 10 14 6 0 10 -6 10 -14 0 -16 37 -29 45 -15 3 4 20 -1 38 -11
18 -11 41 -20 51 -20 11 0 16 -3 12 -7 -4 -4 -17 -8 -28 -8 -27 0 -32 -15 -15
-39 11 -15 18 -16 34 -8 28 16 34 34 21 76 -12 38 -34 51 -25 15 4 -15 2 -19
-10 -15 -8 3 -19 6 -24 6 -5 0 -9 5 -9 11 0 5 5 7 10 4 6 -3 10 1 10 9 0 9 -7
16 -15 16 -8 0 -15 -7 -15 -16 0 -13 -3 -14 -13 -5 -10 8 -17 7 -25 -1 -7 -7
-12 -8 -12 -2 0 11 7 15 92 54 56 25 113 85 141 149 38 85 19 228 -39 292 -10
11 -12 19 -5 24 6 3 11 14 10 23 0 14 -2 13 -9 -3 -9 -19 -9 -19 -16 3 -7 23
-24 31 -24 11 0 -7 -10 -5 -26 6 -70 46 -188 60 -258 31 -33 -14 -37 -14 -32
-1 7 19 1 19 -18 -1 -14 -13 -16 -13 -16 -1 0 9 6 18 13 20 7 4 8 6 1 6 -6 1
-18 -6 -25 -15z m131 -594 c0 -5 -2 -10 -4 -10 -3 0 -8 5 -11 10 -3 6 -1 10 4
10 6 0 11 -4 11 -10z m210 -59 c0 -12 -29 -41 -41 -41 -5 0 1 11 13 25 24 27
28 30 28 16z m-40 -11 c0 -5 -2 -10 -4 -10 -3 0 -8 5 -11 10 -3 6 -1 10 4 10
6 0 11 -4 11 -10z"/>
<path d="M642 746 c3 -21 33 -44 43 -34 9 8 -4 48 -15 48 -4 0 -6 -10 -3 -22
4 -22 4 -22 -12 2 -12 20 -15 21 -13 6z"/>
<path d="M821 731 c-7 -5 -10 -14 -6 -20 5 -9 10 -9 20 -1 9 7 15 8 19 1 12
-18 9 -82 -3 -94 -9 -9 -11 -5 -6 21 5 28 3 32 -17 33 -17 1 -19 2 -5 6 21 5
23 20 2 20 -8 0 -15 -4 -15 -9 0 -4 -15 -8 -32 -9 l-33 -1 33 -8 c19 -4 39
-13 45 -20 7 -6 8 -10 2 -8 -5 2 -11 -1 -11 -7 -1 -5 2 -9 7 -7 5 1 9 -5 9
-13 0 -8 4 -15 10 -15 5 0 7 -6 4 -13 -3 -8 2 -19 10 -26 8 -7 13 -23 10 -37
-4 -22 4 -29 29 -25 5 1 1 -12 -9 -28 -10 -17 -22 -27 -27 -24 -5 3 -3 9 4 14
7 4 10 11 6 15 -4 4 -13 2 -19 -4 -9 -9 -8 -16 4 -28 15 -15 17 -14 33 10 17
26 18 26 31 7 9 -12 21 -17 34 -14 24 6 26 35 4 57 -23 23 -30 20 -9 -4 10
-11 15 -23 11 -27 -4 -4 -11 -1 -15 6 -5 8 -14 10 -22 6 -9 -6 -11 -4 -6 8 4
11 -2 22 -15 31 -12 9 -19 18 -16 21 3 3 12 0 19 -8 17 -17 39 -11 39 10 0 10
-6 14 -20 10 -11 -3 -20 -1 -20 5 0 6 -8 7 -17 4 -13 -4 -11 0 6 14 13 11 17
20 10 20 -8 0 -6 5 6 13 11 9 15 19 10 27 -6 9 -11 6 -21 -11 -7 -13 -10 -27
-8 -30 2 -4 -2 -9 -9 -12 -10 -4 -13 2 -9 19 2 13 8 24 13 24 5 0 9 7 9 15 0
8 -4 15 -10 15 -5 0 -10 13 -10 28 0 25 -15 52 -29 52 -4 0 -12 -4 -20 -9z"/>
<path d="M761 644 c6 -7 16 -11 21 -8 11 7 3 17 -18 20 -12 2 -13 -1 -3 -12z"/>
<path d="M174 632 c-11 -10 -25 -17 -32 -14 -15 5 -16 -10 -1 -25 8 -8 5 -15
-12 -24 -31 -17 -48 -19 -55 -8 -3 5 5 9 18 9 18 0 20 2 9 9 -8 5 -16 20 -18
33 -2 18 -1 20 7 8 7 -12 12 -12 21 -3 10 10 9 14 -4 19 -19 7 -64 -21 -48
-30 5 -4 8 -12 5 -20 -3 -7 0 -24 5 -38 8 -20 7 -28 -4 -32 -24 -9 -36 -41
-22 -60 17 -24 42 -11 45 22 1 24 0 25 -12 10 -16 -22 -26 -23 -26 -4 0 8 15
24 34 35 40 25 43 25 43 6 0 -10 -6 -13 -18 -10 -14 5 -16 1 -12 -17 8 -29 34
-70 41 -64 3 3 0 11 -5 18 -20 26 -22 46 -5 44 13 -1 16 6 14 27 -2 18 2 29
13 33 9 4 14 13 11 21 -6 14 19 61 29 56 6 -4 8 7 3 13 -3 2 -13 -4 -24 -14z"/>
<path d="M225 640 c3 -5 10 -10 16 -10 5 0 9 5 9 10 0 6 -7 10 -16 10 -8 0
-12 -4 -9 -10z"/>
<path d="M920 615 c-10 -13 -9 -15 9 -15 11 0 21 4 21 9 0 18 -18 21 -30 6z"/>
<path d="M101 600 c-9 -5 -5 -9 10 -13 28 -7 31 -6 14 10 -6 6 -18 8 -24 3z"/>
<path d="M910 580 c0 -5 9 -10 20 -10 11 0 20 5 20 10 0 6 -9 10 -20 10 -11 0
-20 -4 -20 -10z"/>
<path d="M147 459 c4 -13 9 -17 15 -11 11 11 3 32 -12 32 -4 0 -6 -9 -3 -21z"/>
<path d="M157 418 c4 -7 8 -20 10 -28 1 -11 -3 -9 -13 4 -18 25 -24 18 -9 -11
16 -30 40 -14 31 21 -3 14 -11 26 -17 26 -6 0 -7 -6 -2 -12z"/>
<path d="M831 408 c-10 -27 -6 -38 15 -38 11 0 12 5 6 18 -5 9 -7 23 -5 30 3
6 2 12 -1 12 -4 0 -10 -10 -15 -22z"/>
<path d="M855 400 c3 -5 8 -10 11 -10 2 0 4 5 4 10 0 6 -5 10 -11 10 -5 0 -7
-4 -4 -10z"/>
<path d="M790 345 c-7 -8 -9 -22 -6 -31 3 -8 -1 -22 -9 -31 -15 -15 -12 -33 5
-33 5 0 7 6 4 14 -3 8 -1 16 3 19 5 3 10 -10 11 -29 2 -32 1 -34 -17 -25 -13
7 -22 8 -26 1 -3 -5 2 -10 12 -10 13 0 10 -4 -11 -15 -15 -8 -35 -15 -42 -15
-8 0 -14 -7 -14 -16 0 -9 5 -12 12 -8 6 4 8 3 5 -4 -4 -5 -16 -8 -27 -5 -14 4
-20 0 -20 -11 0 -10 5 -13 18 -9 14 6 15 4 5 -8 -10 -13 -10 -19 2 -35 14 -18
14 -17 15 12 0 17 7 37 15 44 8 7 12 17 8 24 -4 7 -1 6 9 -1 8 -7 17 -11 20
-8 3 3 10 -1 16 -8 9 -11 6 -13 -20 -13 -26 1 -31 -3 -34 -26 -1 -15 2 -30 7
-33 5 -4 9 -2 9 3 0 6 9 8 20 5 14 -4 20 0 20 10 0 8 4 17 10 19 5 2 11 15 12
31 2 21 8 27 24 27 45 0 66 49 28 64 -10 4 -12 2 -8 -6 5 -7 2 -9 -7 -6 -10 4
-15 -1 -16 -14 -2 -16 1 -17 13 -8 11 10 14 9 14 -4 0 -10 -8 -16 -23 -16 -13
0 -28 -5 -33 -10 -7 -7 -17 -5 -30 5 -18 15 -18 15 11 13 l30 -3 0 55 c0 30 5
59 10 63 6 5 3 7 -7 3 -10 -3 -18 -2 -18 3 0 5 9 11 21 14 12 3 18 10 14 16
-9 15 -20 14 -35 -4z m-24 -224 c2 -8 1 -8 -3 0 -4 8 -7 8 -13 -1 -5 -9 -9 -8
-13 3 -4 10 0 14 11 13 9 -2 17 -8 18 -15z"/>
<path d="M170 331 c0 -11 4 -22 9 -25 5 -4 7 4 4 16 -4 18 -3 20 6 8 9 -12 5
-97 -5 -109 -2 -2 -10 1 -18 8 -18 15 -48 -12 -39 -34 6 -16 50 -31 60 -21 4
3 -3 6 -15 6 -17 0 -21 5 -20 24 1 14 6 22 10 20 5 -3 6 -9 3 -14 -6 -10 19
-20 51 -20 13 0 24 -5 24 -11 0 -5 -5 -7 -10 -4 -6 4 -17 2 -25 -5 -11 -9 -10
-17 3 -50 14 -32 22 -39 42 -38 14 1 28 7 32 13 5 6 8 6 8 -2 0 -23 15 -14 28
16 12 27 11 31 -11 53 -13 13 -29 22 -35 20 -7 -2 -12 1 -12 7 0 6 -10 11 -22
12 -13 0 -17 3 -10 6 6 2 10 9 7 13 -3 5 -12 7 -20 3 -11 -4 -15 2 -15 21 0
14 5 26 11 26 5 0 8 -4 4 -9 -3 -5 -1 -12 5 -16 5 -3 10 3 10 14 0 12 -6 21
-13 21 -7 0 -12 13 -12 32 0 23 -5 34 -17 36 -13 2 -18 -3 -18 -17z m100 -168
c-1 -23 -60 -44 -60 -21 0 7 15 12 33 9 4 0 7 4 7 9 0 6 5 10 10 10 6 0 10 -3
10 -7z m17 -9 c-3 -4 -2 -15 3 -24 8 -14 5 -19 -15 -22 -14 -3 -25 -1 -25 4 0
5 -5 6 -12 2 -6 -4 -8 -3 -4 4 3 6 15 9 26 7 12 -2 18 0 15 6 -6 9 2 29 12 29
4 0 3 -3 0 -6z"/>
<path d="M380 154 c0 -14 3 -14 15 -4 8 7 15 14 15 16 0 2 -7 4 -15 4 -8 0
-15 -7 -15 -16z"/>
<path d="M340 96 c0 -2 7 -9 15 -16 9 -7 15 -8 15 -2 0 5 -7 12 -15 16 -8 3
-15 4 -15 2z"/>
</g>
</svg>
